<svg xmlns="http://www.w3.org/2000/svg" width="32" height="32" id="document"><path d="M2.5 1023.36v26h20v-21h-5v-5z" color="#000" opacity=".146" overflow="visible" style="isolation:auto;mix-blend-mode:normal" transform="translate(0 -1020.362)"></path><path style="isolation:auto;mix-blend-mode:normal" fill="#78c8f0" d="M3.5 1022.36v26h20v-21l-5-5z" color="#000" opacity=".97" overflow="visible" transform="translate(0 -1020.362)"></path><path fill="#4bbfeb" fill-rule="evenodd" d="M18.5 1.998v5h5"></path><path fill="none" stroke="#2b4255" d="M5.5 6.498h11m-11 3h14m-14 3h14"></path><path style="isolation:auto;mix-blend-mode:normal" d="M28.352 1029.504a1.497 1.497 0 0 1 0 2.122l-1.06 1.06-15.557 15.557-4.242 1.414 20.506-20.506.353.353z" color="#000" opacity=".15" overflow="visible" transform="translate(0 -1020.362)"></path><path d="M27.645 1028.797a1.497 1.497 0 0 0-2.121 0l-1.06 1.061-15.557 15.556-1.414 4.243 20.506-20.506-.354-.354z" color="#000" opacity=".15" overflow="visible" style="isolation:auto;mix-blend-mode:normal" transform="translate(0 -1020.362)"></path><path style="isolation:auto;mix-blend-mode:normal" fill="#f05542" d="M746.518 710.921h4v22h-4z" color="#000" overflow="visible" transform="rotate(45 1231.686 -510.181)"></path><path style="isolation:auto;mix-blend-mode:normal" fill="#e9eded" d="m9.614 1046.121 2.828 2.829-4.242 1.414zm15.556-15.556 1.06-1.06a1.497 1.497 0 0 1 2.122 0l.707.706a1.497 1.497 0 0 1 0 2.122l-1.06 1.06z" color="#000" overflow="visible" transform="translate(0 -1020.362)"></path><path fill="none" stroke="#34485c" d="m11.028 27.174 15.556-15.557"></path><path style="isolation:auto;mix-blend-mode:normal" fill="#34485c" d="m8.553 1049.303-.353 1.061 1.06-.354-.707-.707z" color="#000" overflow="visible" transform="translate(0 -1020.362)"></path><path fill="#34485c" color="#000" overflow="visible" transform="rotate(45 1231.686 -510.181)" style="isolation:auto;mix-blend-mode:normal" d="M746.518 710.922h4v1h-4z"></path></svg>