<svg xmlns="http://www.w3.org/2000/svg" width="32" height="32" id="webpage"><path fill="#373449" d="M1 3h30c.553 0 1 .485 1 1.084v23.832c0 .6-.447 1.084-1 1.084H1c-.553 0-1-.485-1-1.084V4.084C0 3.486.448 3 1 3z"></path><path fill="#f7f7f8" d="M1.938 7h28.125c.518 0 .938.392.938.875v19.25c0 .483-.42.875-.938.875H1.938C1.42 28 1 27.608 1 27.125V7.875C1 7.392 1.42 7 1.938 7z"></path><path fill="#ef4c45" d="M30 5a1 1 0 1 1-2 0 1 1 0 1 1 2 0z"></path><path fill="#eff0f2" d="M27 5a1 1 0 1 1-2 0 1 1 0 1 1 2 0zm-3 0a1 1 0 1 1-2 0 1 1 0 1 1 2 0z"></path><path fill="#373449" d="M20 15a4 4 0 1 1-8 0 4 4 0 0 1 8 0zm-6.468 5h5a.5.5 0 0 1 0 1h-5a.5.5 0 0 1 0-1zm1 2h3a.5.5 0 0 1 0 1h-3a.5.5 0 0 1 0-1z"></path></svg>